<?xml version="1.0" encoding="utf-8"?>
<!-- Generator: Adobe Illustrator 15.0.0, SVG Export Plug-In . SVG Version: 6.00 Build 0)  -->
<!DOCTYPE svg PUBLIC "-//W3C//DTD SVG 1.1//EN" "http://www.w3.org/Graphics/SVG/1.1/DTD/svg11.dtd">
<svg version="1.1" id="Capa_1" xmlns="http://www.w3.org/2000/svg" xmlns:xlink="http://www.w3.org/1999/xlink" x="0px" y="0px"
	 width="600px" height="600px" viewBox="0 0 600 600" enable-background="new 0 0 600 600" xml:space="preserve">
<g>
	<path fill="#9F4456" d="M500,423.139C500,465.587,465.587,500,423.139,500H176.862C134.412,500,100,465.587,100,423.139V176.862
		C100,134.413,134.412,100,176.862,100h246.276C465.587,100,500,134.413,500,176.862V423.139z"/>
	<path fill="#953A4B" d="M500,423.139V277.302l-74.325-46.124L234.23,242.375l-37.191-18.62l-25.007,32.182l66.765,39.036
		l-1.659,15.282l-44.225-23.443l-20.206,35.314l63.584,39.752l-0.158,13.136l-46.137-24.447l-18.006,36.152L335.995,500h87.144
		C465.587,500,500,465.587,500,423.139z"/>
	<g>
		<g>
			<g>
				<path fill="#E7BD79" d="M170.373,217.521c0-5.041,3.571-7.103,7.937-4.582l29.206,16.864c4.365,2.521,4.365,6.646,0,9.165
					l-29.206,16.864c-4.365,2.521-7.937,0.458-7.937-4.582V217.521z"/>
			</g>
			<path fill="#223E52" d="M425.671,234.386c0,6.716-5.444,12.163-12.161,12.163H243.388c-6.72,0-12.164-5.447-12.164-12.163l0,0
				c0-6.719,5.444-12.163,12.164-12.163H413.51C420.227,222.223,425.671,227.667,425.671,234.386L425.671,234.386z"/>
		</g>
		<g>
			<g>
				<path fill="#E7BD79" d="M170.373,282.96c0-5.041,3.571-7.102,7.937-4.582l29.206,16.865c4.365,2.521,4.365,6.645,0,9.166
					l-29.205,16.86c-4.365,2.521-7.937,0.459-7.937-4.582L170.373,282.96L170.373,282.96z"/>
			</g>
			<path fill="#223E52" d="M425.671,299.827c0,6.713-5.444,12.161-12.161,12.161H243.388c-6.72,0-12.164-5.447-12.164-12.161l0,0
				c0-6.719,5.444-12.163,12.164-12.163H413.51C420.227,287.664,425.671,293.108,425.671,299.827L425.671,299.827z"/>
		</g>
		<g>
			<g>
				<path fill="#E7BD79" d="M170.373,348.4c0-5.041,3.571-7.104,7.937-4.582l29.206,16.861c4.365,2.521,4.365,6.646,0,9.166
					l-29.206,16.863c-4.365,2.521-7.937,0.459-7.937-4.582V348.4z"/>
			</g>
			<path fill="#223E52" d="M425.671,365.264c0,6.717-5.444,12.166-12.161,12.166H243.388c-6.72,0-12.164-5.449-12.164-12.166l0,0
				c0-6.717,5.444-12.16,12.164-12.16H413.51C420.227,353.104,425.671,358.547,425.671,365.264L425.671,365.264z"/>
		</g>
	</g>
</g>
</svg>
